<?xml version="1.0" encoding="UTF-8"?>
<svg xmlns="http://www.w3.org/2000/svg" xmlns:xlink="http://www.w3.org/1999/xlink" viewBox="0 0 2000 2000">
<defs>
<clipPath id="clip-0">
<path clip-rule="nonzero" d="M 398 711 L 509 711 L 509 726 L 398 726 Z M 398 711 "/>
</clipPath>
<clipPath id="clip-1">
<path clip-rule="evenodd" d="M 508.824219 715.53125 C 485.320312 712.21875 447.277344 710.789062 404.214844 712.058594 C 396.136719 712.570312 396.566406 726 404.664062 725.730469 C 447.707031 724.210938 485.585938 720.320312 508.824219 715.53125 "/>
</clipPath>
<linearGradient id="linear-pattern-0" gradientUnits="userSpaceOnUse" x1="-0.0606929" y1="0" x2="1.080463" y2="0" gradientTransform="matrix(64.1567, 54.2425, -54.2425, 64.1567, 419.935, 690.54)">
<stop offset="0" stop-color="rgb(74.508667%, 58.822632%, 97.253418%)" stop-opacity="1"/>
<stop offset="0.0625" stop-color="rgb(74.577332%, 58.94165%, 97.264099%)" stop-opacity="1"/>
<stop offset="0.0703125" stop-color="rgb(74.703979%, 59.159851%, 97.283936%)" stop-opacity="1"/>
<stop offset="0.078125" stop-color="rgb(74.819946%, 59.358215%, 97.30072%)" stop-opacity="1"/>
<stop offset="0.0859375" stop-color="rgb(74.934387%, 59.558105%, 97.317505%)" stop-opacity="1"/>
<stop offset="0.09375" stop-color="rgb(75.050354%, 59.757996%, 97.335815%)" stop-opacity="1"/>
<stop offset="0.101562" stop-color="rgb(75.164795%, 59.95636%, 97.3526%)" stop-opacity="1"/>
<stop offset="0.109375" stop-color="rgb(75.280762%, 60.15625%, 97.370911%)" stop-opacity="1"/>
<stop offset="0.117188" stop-color="rgb(75.396729%, 60.354614%, 97.387695%)" stop-opacity="1"/>
<stop offset="0.125" stop-color="rgb(75.511169%, 60.554504%, 97.406006%)" stop-opacity="1"/>
<stop offset="0.132812" stop-color="rgb(75.627136%, 60.754395%, 97.422791%)" stop-opacity="1"/>
<stop offset="0.140625" stop-color="rgb(75.743103%, 60.952759%, 97.441101%)" stop-opacity="1"/>
<stop offset="0.148438" stop-color="rgb(75.857544%, 61.152649%, 97.457886%)" stop-opacity="1"/>
<stop offset="0.15625" stop-color="rgb(75.973511%, 61.351013%, 97.476196%)" stop-opacity="1"/>
<stop offset="0.164062" stop-color="rgb(76.087952%, 61.550903%, 97.492981%)" stop-opacity="1"/>
<stop offset="0.171875" stop-color="rgb(76.203918%, 61.750793%, 97.511292%)" stop-opacity="1"/>
<stop offset="0.179688" stop-color="rgb(76.319885%, 61.949158%, 97.528076%)" stop-opacity="1"/>
<stop offset="0.1875" stop-color="rgb(76.434326%, 62.149048%, 97.544861%)" stop-opacity="1"/>
<stop offset="0.195312" stop-color="rgb(76.550293%, 62.347412%, 97.563171%)" stop-opacity="1"/>
<stop offset="0.203125" stop-color="rgb(76.664734%, 62.547302%, 97.579956%)" stop-opacity="1"/>
<stop offset="0.210938" stop-color="rgb(76.780701%, 62.747192%, 97.598267%)" stop-opacity="1"/>
<stop offset="0.21875" stop-color="rgb(76.896667%, 62.945557%, 97.615051%)" stop-opacity="1"/>
<stop offset="0.226562" stop-color="rgb(77.011108%, 63.145447%, 97.633362%)" stop-opacity="1"/>
<stop offset="0.234375" stop-color="rgb(77.127075%, 63.343811%, 97.650146%)" stop-opacity="1"/>
<stop offset="0.242188" stop-color="rgb(77.241516%, 63.543701%, 97.668457%)" stop-opacity="1"/>
<stop offset="0.25" stop-color="rgb(77.357483%, 63.743591%, 97.685242%)" stop-opacity="1"/>
<stop offset="0.257812" stop-color="rgb(77.47345%, 63.941956%, 97.703552%)" stop-opacity="1"/>
<stop offset="0.265625" stop-color="rgb(77.587891%, 64.141846%, 97.720337%)" stop-opacity="1"/>
<stop offset="0.273438" stop-color="rgb(77.703857%, 64.34021%, 97.737122%)" stop-opacity="1"/>
<stop offset="0.28125" stop-color="rgb(77.819824%, 64.5401%, 97.755432%)" stop-opacity="1"/>
<stop offset="0.289063" stop-color="rgb(77.934265%, 64.73999%, 97.772217%)" stop-opacity="1"/>
<stop offset="0.296875" stop-color="rgb(78.050232%, 64.938354%, 97.790527%)" stop-opacity="1"/>
<stop offset="0.304688" stop-color="rgb(78.164673%, 65.138245%, 97.807312%)" stop-opacity="1"/>
<stop offset="0.3125" stop-color="rgb(78.28064%, 65.336609%, 97.825623%)" stop-opacity="1"/>
<stop offset="0.320312" stop-color="rgb(78.396606%, 65.536499%, 97.842407%)" stop-opacity="1"/>
<stop offset="0.328125" stop-color="rgb(78.511047%, 65.736389%, 97.860718%)" stop-opacity="1"/>
<stop offset="0.335937" stop-color="rgb(78.627014%, 65.934753%, 97.877502%)" stop-opacity="1"/>
<stop offset="0.34375" stop-color="rgb(78.741455%, 66.134644%, 97.895813%)" stop-opacity="1"/>
<stop offset="0.351563" stop-color="rgb(78.857422%, 66.333008%, 97.912598%)" stop-opacity="1"/>
<stop offset="0.359375" stop-color="rgb(78.973389%, 66.532898%, 97.929382%)" stop-opacity="1"/>
<stop offset="0.367188" stop-color="rgb(79.08783%, 66.732788%, 97.947693%)" stop-opacity="1"/>
<stop offset="0.375" stop-color="rgb(79.203796%, 66.931152%, 97.964478%)" stop-opacity="1"/>
<stop offset="0.382812" stop-color="rgb(79.318237%, 67.131042%, 97.982788%)" stop-opacity="1"/>
<stop offset="0.390625" stop-color="rgb(79.434204%, 67.329407%, 97.999573%)" stop-opacity="1"/>
<stop offset="0.398437" stop-color="rgb(79.550171%, 67.529297%, 98.017883%)" stop-opacity="1"/>
<stop offset="0.40625" stop-color="rgb(79.664612%, 67.729187%, 98.034668%)" stop-opacity="1"/>
<stop offset="0.414063" stop-color="rgb(79.780579%, 67.927551%, 98.052979%)" stop-opacity="1"/>
<stop offset="0.421875" stop-color="rgb(79.896545%, 68.127441%, 98.069763%)" stop-opacity="1"/>
<stop offset="0.429688" stop-color="rgb(80.010986%, 68.325806%, 98.088074%)" stop-opacity="1"/>
<stop offset="0.4375" stop-color="rgb(80.126953%, 68.525696%, 98.104858%)" stop-opacity="1"/>
<stop offset="0.445312" stop-color="rgb(80.241394%, 68.725586%, 98.121643%)" stop-opacity="1"/>
<stop offset="0.453125" stop-color="rgb(80.357361%, 68.92395%, 98.139954%)" stop-opacity="1"/>
<stop offset="0.460937" stop-color="rgb(80.473328%, 69.12384%, 98.156738%)" stop-opacity="1"/>
<stop offset="0.46875" stop-color="rgb(80.587769%, 69.322205%, 98.175049%)" stop-opacity="1"/>
<stop offset="0.476563" stop-color="rgb(80.703735%, 69.522095%, 98.191833%)" stop-opacity="1"/>
<stop offset="0.484375" stop-color="rgb(80.818176%, 69.721985%, 98.210144%)" stop-opacity="1"/>
<stop offset="0.492188" stop-color="rgb(80.934143%, 69.920349%, 98.226929%)" stop-opacity="1"/>
<stop offset="0.5" stop-color="rgb(81.05011%, 70.120239%, 98.245239%)" stop-opacity="1"/>
<stop offset="0.507812" stop-color="rgb(81.164551%, 70.320129%, 98.262024%)" stop-opacity="1"/>
<stop offset="0.515625" stop-color="rgb(81.280518%, 70.518494%, 98.280334%)" stop-opacity="1"/>
<stop offset="0.523438" stop-color="rgb(81.394958%, 70.718384%, 98.297119%)" stop-opacity="1"/>
<stop offset="0.53125" stop-color="rgb(81.510925%, 70.916748%, 98.31543%)" stop-opacity="1"/>
<stop offset="0.539062" stop-color="rgb(81.626892%, 71.116638%, 98.332214%)" stop-opacity="1"/>
<stop offset="0.546875" stop-color="rgb(81.741333%, 71.316528%, 98.348999%)" stop-opacity="1"/>
<stop offset="0.554687" stop-color="rgb(81.8573%, 71.514893%, 98.36731%)" stop-opacity="1"/>
<stop offset="0.5625" stop-color="rgb(81.973267%, 71.714783%, 98.384094%)" stop-opacity="1"/>
<stop offset="0.570313" stop-color="rgb(82.087708%, 71.913147%, 98.402405%)" stop-opacity="1"/>
<stop offset="0.578125" stop-color="rgb(82.203674%, 72.113037%, 98.419189%)" stop-opacity="1"/>
<stop offset="0.585938" stop-color="rgb(82.318115%, 72.312927%, 98.4375%)" stop-opacity="1"/>
<stop offset="0.59375" stop-color="rgb(82.434082%, 72.511292%, 98.454285%)" stop-opacity="1"/>
<stop offset="0.601562" stop-color="rgb(82.550049%, 72.711182%, 98.472595%)" stop-opacity="1"/>
<stop offset="0.609375" stop-color="rgb(82.66449%, 72.909546%, 98.48938%)" stop-opacity="1"/>
<stop offset="0.617188" stop-color="rgb(82.780457%, 73.109436%, 98.50769%)" stop-opacity="1"/>
<stop offset="0.625" stop-color="rgb(82.894897%, 73.309326%, 98.524475%)" stop-opacity="1"/>
<stop offset="0.632812" stop-color="rgb(83.010864%, 73.50769%, 98.54126%)" stop-opacity="1"/>
<stop offset="0.640625" stop-color="rgb(83.126831%, 73.707581%, 98.55957%)" stop-opacity="1"/>
<stop offset="0.648438" stop-color="rgb(83.241272%, 73.905945%, 98.576355%)" stop-opacity="1"/>
<stop offset="0.65625" stop-color="rgb(83.357239%, 74.105835%, 98.594666%)" stop-opacity="1"/>
<stop offset="0.664062" stop-color="rgb(83.47168%, 74.305725%, 98.61145%)" stop-opacity="1"/>
<stop offset="0.671875" stop-color="rgb(83.587646%, 74.504089%, 98.629761%)" stop-opacity="1"/>
<stop offset="0.679687" stop-color="rgb(83.703613%, 74.703979%, 98.646545%)" stop-opacity="1"/>
<stop offset="0.6875" stop-color="rgb(83.818054%, 74.902344%, 98.664856%)" stop-opacity="1"/>
<stop offset="0.695313" stop-color="rgb(83.934021%, 75.102234%, 98.681641%)" stop-opacity="1"/>
<stop offset="0.703125" stop-color="rgb(84.049988%, 75.302124%, 98.699951%)" stop-opacity="1"/>
<stop offset="0.710938" stop-color="rgb(84.164429%, 75.500488%, 98.716736%)" stop-opacity="1"/>
<stop offset="0.71875" stop-color="rgb(84.280396%, 75.700378%, 98.733521%)" stop-opacity="1"/>
<stop offset="0.726562" stop-color="rgb(84.394836%, 75.898743%, 98.751831%)" stop-opacity="1"/>
<stop offset="0.734375" stop-color="rgb(84.510803%, 76.098633%, 98.768616%)" stop-opacity="1"/>
<stop offset="0.742188" stop-color="rgb(84.62677%, 76.298523%, 98.786926%)" stop-opacity="1"/>
<stop offset="0.75" stop-color="rgb(84.741211%, 76.496887%, 98.803711%)" stop-opacity="1"/>
<stop offset="0.757812" stop-color="rgb(84.857178%, 76.696777%, 98.822021%)" stop-opacity="1"/>
<stop offset="0.765625" stop-color="rgb(84.971619%, 76.895142%, 98.838806%)" stop-opacity="1"/>
<stop offset="0.773438" stop-color="rgb(85.087585%, 77.095032%, 98.857117%)" stop-opacity="1"/>
<stop offset="0.78125" stop-color="rgb(85.203552%, 77.294922%, 98.873901%)" stop-opacity="1"/>
<stop offset="0.789062" stop-color="rgb(85.317993%, 77.493286%, 98.892212%)" stop-opacity="1"/>
<stop offset="0.796875" stop-color="rgb(85.43396%, 77.693176%, 98.908997%)" stop-opacity="1"/>
<stop offset="0.804687" stop-color="rgb(85.549927%, 77.891541%, 98.925781%)" stop-opacity="1"/>
<stop offset="0.8125" stop-color="rgb(85.664368%, 78.091431%, 98.944092%)" stop-opacity="1"/>
<stop offset="0.820313" stop-color="rgb(85.780334%, 78.291321%, 98.960876%)" stop-opacity="1"/>
<stop offset="0.828125" stop-color="rgb(85.894775%, 78.489685%, 98.979187%)" stop-opacity="1"/>
<stop offset="0.835938" stop-color="rgb(86.010742%, 78.689575%, 98.995972%)" stop-opacity="1"/>
<stop offset="0.84375" stop-color="rgb(86.126709%, 78.887939%, 99.014282%)" stop-opacity="1"/>
<stop offset="0.851562" stop-color="rgb(86.24115%, 79.08783%, 99.031067%)" stop-opacity="1"/>
<stop offset="0.859375" stop-color="rgb(86.357117%, 79.28772%, 99.049377%)" stop-opacity="1"/>
<stop offset="0.867188" stop-color="rgb(86.471558%, 79.486084%, 99.066162%)" stop-opacity="1"/>
<stop offset="0.875" stop-color="rgb(86.587524%, 79.685974%, 99.084473%)" stop-opacity="1"/>
<stop offset="0.882812" stop-color="rgb(86.703491%, 79.884338%, 99.101257%)" stop-opacity="1"/>
<stop offset="0.890625" stop-color="rgb(86.817932%, 80.084229%, 99.119568%)" stop-opacity="1"/>
<stop offset="0.898438" stop-color="rgb(86.933899%, 80.284119%, 99.136353%)" stop-opacity="1"/>
<stop offset="0.90625" stop-color="rgb(87.04834%, 80.482483%, 99.153137%)" stop-opacity="1"/>
<stop offset="0.914063" stop-color="rgb(87.164307%, 80.682373%, 99.171448%)" stop-opacity="1"/>
<stop offset="0.921875" stop-color="rgb(87.280273%, 80.880737%, 99.188232%)" stop-opacity="1"/>
<stop offset="0.9375" stop-color="rgb(87.393188%, 81.077576%, 99.206543%)" stop-opacity="1"/>
<stop offset="1" stop-color="rgb(87.449646%, 81.175232%, 99.215698%)" stop-opacity="1"/>
</linearGradient>
<clipPath id="clip-2">
<path clip-rule="nonzero" d="M 332 697 L 426 697 L 426 742 L 332 742 Z M 332 697 "/>
</clipPath>
<clipPath id="clip-3">
<path clip-rule="evenodd" d="M 332.386719 701.128906 C 356.128906 699.738281 380.652344 698.609375 405.703125 697.738281 C 430.664062 697.671875 431.980469 739.089844 407.054688 739.941406 C 381.992188 740.679688 357.476562 741.121094 333.691406 741.25 L 332.386719 701.128906 "/>
</clipPath>
<linearGradient id="linear-pattern-1" gradientUnits="userSpaceOnUse" x1="-0.0253049" y1="0" x2="1.156469" y2="0" gradientTransform="matrix(67.3273, 56.9231, -56.9231, 67.3273, 340.355, 691.7)">
<stop offset="0" stop-color="rgb(74.508667%, 58.822632%, 97.253418%)" stop-opacity="1"/>
<stop offset="0.03125" stop-color="rgb(74.583435%, 58.952332%, 97.264099%)" stop-opacity="1"/>
<stop offset="0.0390625" stop-color="rgb(74.719238%, 59.185791%, 97.285461%)" stop-opacity="1"/>
<stop offset="0.046875" stop-color="rgb(74.838257%, 59.391785%, 97.303772%)" stop-opacity="1"/>
<stop offset="0.0546875" stop-color="rgb(74.957275%, 59.597778%, 97.322083%)" stop-opacity="1"/>
<stop offset="0.0625" stop-color="rgb(75.07782%, 59.803772%, 97.340393%)" stop-opacity="1"/>
<stop offset="0.0703125" stop-color="rgb(75.196838%, 60.011292%, 97.358704%)" stop-opacity="1"/>
<stop offset="0.078125" stop-color="rgb(75.315857%, 60.217285%, 97.377014%)" stop-opacity="1"/>
<stop offset="0.0859375" stop-color="rgb(75.436401%, 60.423279%, 97.393799%)" stop-opacity="1"/>
<stop offset="0.09375" stop-color="rgb(75.55542%, 60.629272%, 97.412109%)" stop-opacity="1"/>
<stop offset="0.101562" stop-color="rgb(75.674438%, 60.836792%, 97.43042%)" stop-opacity="1"/>
<stop offset="0.109375" stop-color="rgb(75.794983%, 61.042786%, 97.44873%)" stop-opacity="1"/>
<stop offset="0.117188" stop-color="rgb(75.914001%, 61.248779%, 97.467041%)" stop-opacity="1"/>
<stop offset="0.125" stop-color="rgb(76.03302%, 61.454773%, 97.485352%)" stop-opacity="1"/>
<stop offset="0.132812" stop-color="rgb(76.152039%, 61.662292%, 97.503662%)" stop-opacity="1"/>
<stop offset="0.140625" stop-color="rgb(76.272583%, 61.868286%, 97.521973%)" stop-opacity="1"/>
<stop offset="0.148438" stop-color="rgb(76.391602%, 62.07428%, 97.538757%)" stop-opacity="1"/>
<stop offset="0.15625" stop-color="rgb(76.51062%, 62.280273%, 97.557068%)" stop-opacity="1"/>
<stop offset="0.164062" stop-color="rgb(76.631165%, 62.487793%, 97.575378%)" stop-opacity="1"/>
<stop offset="0.171875" stop-color="rgb(76.750183%, 62.693787%, 97.593689%)" stop-opacity="1"/>
<stop offset="0.179688" stop-color="rgb(76.869202%, 62.89978%, 97.612%)" stop-opacity="1"/>
<stop offset="0.1875" stop-color="rgb(76.989746%, 63.105774%, 97.63031%)" stop-opacity="1"/>
<stop offset="0.195312" stop-color="rgb(77.108765%, 63.313293%, 97.648621%)" stop-opacity="1"/>
<stop offset="0.203125" stop-color="rgb(77.227783%, 63.519287%, 97.665405%)" stop-opacity="1"/>
<stop offset="0.210938" stop-color="rgb(77.348328%, 63.725281%, 97.683716%)" stop-opacity="1"/>
<stop offset="0.21875" stop-color="rgb(77.467346%, 63.931274%, 97.702026%)" stop-opacity="1"/>
<stop offset="0.226562" stop-color="rgb(77.586365%, 64.138794%, 97.720337%)" stop-opacity="1"/>
<stop offset="0.234375" stop-color="rgb(77.705383%, 64.344788%, 97.738647%)" stop-opacity="1"/>
<stop offset="0.242188" stop-color="rgb(77.825928%, 64.550781%, 97.756958%)" stop-opacity="1"/>
<stop offset="0.25" stop-color="rgb(77.944946%, 64.756775%, 97.775269%)" stop-opacity="1"/>
<stop offset="0.257812" stop-color="rgb(78.063965%, 64.964294%, 97.792053%)" stop-opacity="1"/>
<stop offset="0.265625" stop-color="rgb(78.184509%, 65.170288%, 97.810364%)" stop-opacity="1"/>
<stop offset="0.273438" stop-color="rgb(78.303528%, 65.376282%, 97.828674%)" stop-opacity="1"/>
<stop offset="0.28125" stop-color="rgb(78.422546%, 65.582275%, 97.846985%)" stop-opacity="1"/>
<stop offset="0.289062" stop-color="rgb(78.543091%, 65.789795%, 97.865295%)" stop-opacity="1"/>
<stop offset="0.296875" stop-color="rgb(78.662109%, 65.995789%, 97.883606%)" stop-opacity="1"/>
<stop offset="0.304688" stop-color="rgb(78.781128%, 66.201782%, 97.901917%)" stop-opacity="1"/>
<stop offset="0.3125" stop-color="rgb(78.900146%, 66.407776%, 97.920227%)" stop-opacity="1"/>
<stop offset="0.320312" stop-color="rgb(79.020691%, 66.615295%, 97.937012%)" stop-opacity="1"/>
<stop offset="0.328125" stop-color="rgb(79.139709%, 66.821289%, 97.955322%)" stop-opacity="1"/>
<stop offset="0.335938" stop-color="rgb(79.258728%, 67.027283%, 97.973633%)" stop-opacity="1"/>
<stop offset="0.34375" stop-color="rgb(79.379272%, 67.233276%, 97.991943%)" stop-opacity="1"/>
<stop offset="0.351562" stop-color="rgb(79.498291%, 67.440796%, 98.010254%)" stop-opacity="1"/>
<stop offset="0.359375" stop-color="rgb(79.61731%, 67.64679%, 98.028564%)" stop-opacity="1"/>
<stop offset="0.367188" stop-color="rgb(79.737854%, 67.852783%, 98.046875%)" stop-opacity="1"/>
<stop offset="0.375" stop-color="rgb(79.856873%, 68.058777%, 98.06366%)" stop-opacity="1"/>
<stop offset="0.382812" stop-color="rgb(79.975891%, 68.266296%, 98.08197%)" stop-opacity="1"/>
<stop offset="0.390625" stop-color="rgb(80.09491%, 68.47229%, 98.100281%)" stop-opacity="1"/>
<stop offset="0.398438" stop-color="rgb(80.215454%, 68.678284%, 98.118591%)" stop-opacity="1"/>
<stop offset="0.40625" stop-color="rgb(80.334473%, 68.884277%, 98.136902%)" stop-opacity="1"/>
<stop offset="0.414062" stop-color="rgb(80.453491%, 69.091797%, 98.155212%)" stop-opacity="1"/>
<stop offset="0.421875" stop-color="rgb(80.574036%, 69.297791%, 98.173523%)" stop-opacity="1"/>
<stop offset="0.429687" stop-color="rgb(80.693054%, 69.503784%, 98.190308%)" stop-opacity="1"/>
<stop offset="0.4375" stop-color="rgb(80.812073%, 69.709778%, 98.208618%)" stop-opacity="1"/>
<stop offset="0.445313" stop-color="rgb(80.932617%, 69.917297%, 98.226929%)" stop-opacity="1"/>
<stop offset="0.453125" stop-color="rgb(81.051636%, 70.123291%, 98.245239%)" stop-opacity="1"/>
<stop offset="0.460937" stop-color="rgb(81.170654%, 70.329285%, 98.26355%)" stop-opacity="1"/>
<stop offset="0.46875" stop-color="rgb(81.291199%, 70.535278%, 98.28186%)" stop-opacity="1"/>
<stop offset="0.476563" stop-color="rgb(81.410217%, 70.742798%, 98.300171%)" stop-opacity="1"/>
<stop offset="0.484375" stop-color="rgb(81.529236%, 70.948792%, 98.318481%)" stop-opacity="1"/>
<stop offset="0.492187" stop-color="rgb(81.648254%, 71.154785%, 98.335266%)" stop-opacity="1"/>
<stop offset="0.5" stop-color="rgb(81.768799%, 71.360779%, 98.353577%)" stop-opacity="1"/>
<stop offset="0.507812" stop-color="rgb(81.887817%, 71.568298%, 98.371887%)" stop-opacity="1"/>
<stop offset="0.515625" stop-color="rgb(82.006836%, 71.774292%, 98.390198%)" stop-opacity="1"/>
<stop offset="0.523438" stop-color="rgb(82.12738%, 71.980286%, 98.408508%)" stop-opacity="1"/>
<stop offset="0.53125" stop-color="rgb(82.246399%, 72.186279%, 98.426819%)" stop-opacity="1"/>
<stop offset="0.539062" stop-color="rgb(82.365417%, 72.393799%, 98.445129%)" stop-opacity="1"/>
<stop offset="0.546875" stop-color="rgb(82.485962%, 72.599792%, 98.461914%)" stop-opacity="1"/>
<stop offset="0.554688" stop-color="rgb(82.60498%, 72.805786%, 98.480225%)" stop-opacity="1"/>
<stop offset="0.5625" stop-color="rgb(82.723999%, 73.01178%, 98.498535%)" stop-opacity="1"/>
<stop offset="0.570312" stop-color="rgb(82.843018%, 73.219299%, 98.516846%)" stop-opacity="1"/>
<stop offset="0.578125" stop-color="rgb(82.963562%, 73.425293%, 98.535156%)" stop-opacity="1"/>
<stop offset="0.585938" stop-color="rgb(83.082581%, 73.631287%, 98.553467%)" stop-opacity="1"/>
<stop offset="0.59375" stop-color="rgb(83.201599%, 73.83728%, 98.571777%)" stop-opacity="1"/>
<stop offset="0.601562" stop-color="rgb(83.322144%, 74.0448%, 98.588562%)" stop-opacity="1"/>
<stop offset="0.609375" stop-color="rgb(83.441162%, 74.250793%, 98.606873%)" stop-opacity="1"/>
<stop offset="0.617188" stop-color="rgb(83.560181%, 74.456787%, 98.625183%)" stop-opacity="1"/>
<stop offset="0.625" stop-color="rgb(83.680725%, 74.662781%, 98.643494%)" stop-opacity="1"/>
<stop offset="0.632812" stop-color="rgb(83.799744%, 74.8703%, 98.661804%)" stop-opacity="1"/>
<stop offset="0.640625" stop-color="rgb(83.918762%, 75.076294%, 98.680115%)" stop-opacity="1"/>
<stop offset="0.648438" stop-color="rgb(84.037781%, 75.282288%, 98.698425%)" stop-opacity="1"/>
<stop offset="0.65625" stop-color="rgb(84.158325%, 75.488281%, 98.716736%)" stop-opacity="1"/>
<stop offset="0.664062" stop-color="rgb(84.277344%, 75.695801%, 98.733521%)" stop-opacity="1"/>
<stop offset="0.671875" stop-color="rgb(84.396362%, 75.901794%, 98.751831%)" stop-opacity="1"/>
<stop offset="0.679688" stop-color="rgb(84.516907%, 76.107788%, 98.770142%)" stop-opacity="1"/>
<stop offset="0.6875" stop-color="rgb(84.635925%, 76.313782%, 98.788452%)" stop-opacity="1"/>
<stop offset="0.695312" stop-color="rgb(84.754944%, 76.521301%, 98.806763%)" stop-opacity="1"/>
<stop offset="0.703125" stop-color="rgb(84.875488%, 76.727295%, 98.825073%)" stop-opacity="1"/>
<stop offset="0.710938" stop-color="rgb(84.994507%, 76.933289%, 98.843384%)" stop-opacity="1"/>
<stop offset="0.71875" stop-color="rgb(85.113525%, 77.139282%, 98.860168%)" stop-opacity="1"/>
<stop offset="0.726562" stop-color="rgb(85.23407%, 77.346802%, 98.878479%)" stop-opacity="1"/>
<stop offset="0.734375" stop-color="rgb(85.353088%, 77.552795%, 98.89679%)" stop-opacity="1"/>
<stop offset="0.742188" stop-color="rgb(85.472107%, 77.758789%, 98.9151%)" stop-opacity="1"/>
<stop offset="0.75" stop-color="rgb(85.591125%, 77.964783%, 98.933411%)" stop-opacity="1"/>
<stop offset="0.757812" stop-color="rgb(85.71167%, 78.172302%, 98.951721%)" stop-opacity="1"/>
<stop offset="0.765625" stop-color="rgb(85.830688%, 78.378296%, 98.970032%)" stop-opacity="1"/>
<stop offset="0.773438" stop-color="rgb(85.949707%, 78.58429%, 98.988342%)" stop-opacity="1"/>
<stop offset="0.78125" stop-color="rgb(86.070251%, 78.790283%, 99.005127%)" stop-opacity="1"/>
<stop offset="0.789062" stop-color="rgb(86.18927%, 78.997803%, 99.023438%)" stop-opacity="1"/>
<stop offset="0.796875" stop-color="rgb(86.308289%, 79.203796%, 99.041748%)" stop-opacity="1"/>
<stop offset="0.804688" stop-color="rgb(86.428833%, 79.40979%, 99.060059%)" stop-opacity="1"/>
<stop offset="0.8125" stop-color="rgb(86.547852%, 79.615784%, 99.078369%)" stop-opacity="1"/>
<stop offset="0.820312" stop-color="rgb(86.66687%, 79.823303%, 99.09668%)" stop-opacity="1"/>
<stop offset="0.828125" stop-color="rgb(86.785889%, 80.029297%, 99.11499%)" stop-opacity="1"/>
<stop offset="0.835938" stop-color="rgb(86.906433%, 80.235291%, 99.131775%)" stop-opacity="1"/>
<stop offset="0.84375" stop-color="rgb(87.025452%, 80.441284%, 99.150085%)" stop-opacity="1"/>
<stop offset="0.851562" stop-color="rgb(87.14447%, 80.648804%, 99.168396%)" stop-opacity="1"/>
<stop offset="0.859375" stop-color="rgb(87.265015%, 80.854797%, 99.186707%)" stop-opacity="1"/>
<stop offset="0.875" stop-color="rgb(87.387085%, 81.066895%, 99.205017%)" stop-opacity="1"/>
<stop offset="1" stop-color="rgb(87.449646%, 81.175232%, 99.215698%)" stop-opacity="1"/>
</linearGradient>
</defs>
<rect x="-200" y="-200" width="2400" height="2400" fill="rgb(100%, 100%, 100%)" fill-opacity="1"/>
<path fill-rule="evenodd" fill="rgb(83.59375%, 94.139099%, 100%)" fill-opacity="1" d="M 1703.101562 501.078125 C 1588.03125 224.839844 1257.570312 36.761719 874.089844 56.828125 C 403.851562 81.710938 32.117188 409.871094 43.867188 789.96875 C 49.589844 975.429688 145.386719 1139.078125 296.910156 1255.160156 C 411.984375 1531.398438 742.445312 1719.480469 1125.929688 1699.410156 C 1596.160156 1674.53125 1967.589844 1346.371094 1956.148438 966.269531 C 1950.421875 780.371094 1854.628906 617.160156 1703.101562 501.078125 "/>
<path fill-rule="evenodd" fill="rgb(87.5%, 90.234375%, 100%)" fill-opacity="1" d="M 1853.621094 1909.550781 C 1853.621094 1936.058594 1465.898438 1957.550781 987.621094 1957.550781 C 509.34375 1957.550781 121.621094 1936.058594 121.621094 1909.550781 C 121.621094 1883.039062 509.34375 1861.550781 987.621094 1861.550781 C 1465.898438 1861.550781 1853.621094 1883.039062 1853.621094 1909.550781 "/>
<path fill-rule="nonzero" fill="rgb(2.352905%, 26.268005%, 63.867188%)" fill-opacity="1" d="M 1798.96875 977.601562 C 1758.558594 977.601562 1725.601562 944.628906 1725.601562 904.21875 C 1725.601562 863.808594 1758.558594 830.851562 1798.96875 830.851562 C 1839.378906 830.851562 1872.351562 863.808594 1872.351562 904.21875 C 1872.351562 944.628906 1839.378906 977.601562 1798.96875 977.601562 Z M 1923.359375 871.960938 C 1920.339844 860.28125 1915.710938 849.238281 1909.730469 839.089844 L 1926.011719 808.609375 L 1894.578125 777.179688 L 1864.101562 793.480469 C 1853.949219 787.488281 1842.910156 782.871094 1831.230469 779.839844 L 1821.199219 746.78125 L 1776.761719 746.78125 L 1766.710938 779.839844 C 1755.03125 782.871094 1743.988281 787.488281 1733.839844 793.480469 L 1703.351562 777.179688 L 1686.46875 794.078125 L 1671.929688 808.609375 L 1688.21875 839.089844 C 1682.238281 849.238281 1677.621094 860.28125 1674.589844 871.960938 L 1641.53125 882.011719 L 1641.53125 926.449219 L 1674.589844 936.480469 C 1677.621094 948.160156 1682.238281 959.199219 1688.21875 969.351562 L 1671.929688 999.828125 L 1686.46875 1014.359375 L 1703.351562 1031.261719 L 1733.839844 1014.980469 C 1743.988281 1020.960938 1755.03125 1025.589844 1766.710938 1028.609375 L 1776.761719 1061.660156 L 1821.199219 1061.660156 L 1831.230469 1028.609375 C 1842.910156 1025.589844 1853.949219 1020.960938 1864.101562 1014.980469 L 1894.578125 1031.261719 L 1911.488281 1014.359375 L 1926.011719 999.828125 L 1909.730469 969.351562 C 1915.710938 959.199219 1920.339844 948.160156 1923.359375 936.480469 L 1956.398438 926.449219 L 1956.398438 882.011719 L 1923.359375 871.960938 "/>
<path fill-rule="evenodd" fill="rgb(99.609375%, 70.896912%, 25.87738%)" fill-opacity="1" d="M 1019.460938 42.449219 C 1339.21875 42.449219 1598.441406 301.660156 1598.441406 621.429688 L 1019.460938 621.429688 L 1019.460938 42.449219 "/>
<path fill-rule="evenodd" fill="rgb(38.426208%, 79.6875%, 92.576599%)" fill-opacity="1" d="M 980.539062 659.121094 L 1559.609375 659.121094 C 1559.609375 906.808594 1404.03125 1118.128906 1185.148438 1200.878906 L 1185.148438 1200.78125 L 980.539062 659.121094 "/>
<path fill-rule="evenodd" fill="rgb(89.84375%, 38.035583%, 51.756287%)" fill-opacity="1" d="M 980.539062 659.121094 L 1185.148438 1200.78125 C 1119.78125 1225.441406 1050.441406 1238.101562 980.539062 1238.101562 C 660.777344 1238.101562 401.5625 978.878906 401.5625 659.121094 C 401.5625 339.359375 660.777344 80.050781 980.539062 80.050781 L 980.539062 659.121094 "/>
<path fill-rule="evenodd" fill="rgb(100%, 59.568787%, 39.988708%)" fill-opacity="1" d="M 1425.601562 1258.140625 L 1452.839844 1290.21875 L 1434.609375 1310.648438 C 1421.640625 1340.308594 1415.050781 1420.730469 1395.941406 1399.640625 L 1385.171875 1291.96875 L 1410.21875 1279.890625 L 1425.601562 1258.140625 "/>
<path fill-rule="evenodd" fill="rgb(2.352905%, 26.268005%, 63.867188%)" fill-opacity="1" d="M 907.28125 1781.070312 L 874.984375 1813.808594 C 868.171875 1839.289062 738.539062 1818.859375 762.488281 1888.289062 C 827.742188 1886.53125 886.847656 1883.460938 952.105469 1881.699219 C 957.816406 1861.480469 952.984375 1839.289062 940.460938 1811.828125 C 925.738281 1803.039062 922.003906 1789.859375 907.28125 1781.070312 "/>
<path fill-rule="evenodd" fill="rgb(17.259216%, 49.414062%, 99.609375%)" fill-opacity="1" d="M 1043.070312 1806.339844 L 1009.671875 1838.851562 C 975.613281 1865 874.324219 1844.128906 898.273438 1913.558594 C 963.527344 1911.800781 1028.789062 1910.039062 1094.039062 1908.28125 C 1095.140625 1886.089844 1095.140625 1857.96875 1082.839844 1830.5 L 1043.070312 1806.339844 "/>
<path fill-rule="evenodd" fill="rgb(74.414062%, 58.789062%, 97.264099%)" fill-opacity="1" d="M 1048.78125 1369.101562 C 1028.789062 1372.609375 1012.308594 1373.929688 964.410156 1382.941406 C 916.730469 1390.410156 882.234375 1422.710938 880.035156 1460.28125 L 874.324219 1799.960938 L 947.929688 1810.511719 L 975.394531 1515.210938 C 998.464844 1514.550781 1021.101562 1515.648438 1043.070312 1517.628906 L 1048.78125 1369.101562 "/>
<path fill-rule="evenodd" fill="rgb(87.5%, 81.25%, 99.21875%)" fill-opacity="1" d="M 1279.050781 1244.519531 L 1192.921875 1314.828125 C 1144.800781 1333.941406 1115.359375 1339.210938 1041.75 1364.261719 C 991.652344 1379.421875 959.574219 1419.410156 963.089844 1459.839844 L 1009.011719 1824.789062 L 1089.429688 1824.789062 L 1073.609375 1504.21875 C 1221.039062 1479.390625 1353.75 1520.261719 1405.378906 1439.839844 C 1434.171875 1393.921875 1417.910156 1354.371094 1403.628906 1316.140625 L 1279.050781 1244.519531 "/>
<path fill-rule="evenodd" fill="rgb(100%, 59.568787%, 39.988708%)" fill-opacity="1" d="M 883.550781 1104.988281 L 879.15625 1060.609375 L 843.34375 1065.230469 C 831.480469 1053.359375 829.0625 1030.289062 807.308594 1029.628906 C 791.488281 1038.640625 823.128906 1052.699219 824.886719 1068.078125 C 797.640625 1077.089844 774.132812 1050.058594 756.773438 1067.421875 C 734.144531 1088.078125 736.121094 1121.25 769.519531 1123.011719 C 794.566406 1122.570312 809.726562 1113.558594 827.304688 1105.871094 L 883.550781 1104.988281 "/>
<path fill-rule="evenodd" fill="rgb(5.488586%, 72.851562%, 62.693787%)" fill-opacity="1" d="M 1402.089844 929.878906 C 1472.621094 973.160156 1544.898438 1034.898438 1605.109375 1088.738281 C 1613.679688 1098.839844 1612.800781 1107.628906 1607.300781 1115.101562 L 1447.128906 1305.378906 L 1413.070312 1268.238281 L 1509.75 1124.988281 L 1421.421875 1088.738281 L 1402.96875 1317.898438 C 1328.699219 1375.25 1263.449219 1308.011719 1191.160156 1312.191406 C 1195.550781 1231.769531 1179.949219 1135.75 1184.351562 1055.339844 C 1147.871094 1071.160156 1111.179688 1086.761719 1074.710938 1102.359375 C 1074.710938 1102.359375 1074.710938 1102.359375 1054.929688 1101.699219 L 860.042969 1115.539062 L 856.085938 1059.511719 L 1060.210938 1027.429688 L 1204.78125 926.359375 C 1268.058594 910.761719 1348.261719 900.878906 1402.089844 929.878906 "/>
<path fill-rule="evenodd" fill="rgb(100%, 59.568787%, 39.988708%)" fill-opacity="1" d="M 1226.089844 894.71875 L 1292.011719 863.300781 L 1323.210938 921.53125 C 1303.871094 954.050781 1270.921875 955.371094 1248.71875 952.289062 L 1226.089844 894.71875 "/>
<path fill-rule="evenodd" fill="rgb(100%, 66.601562%, 50.584412%)" fill-opacity="1" d="M 1279.699219 714.109375 C 1233.339844 725.980469 1186.980469 737.839844 1140.621094 749.488281 C 1135.789062 781.351562 1177.320312 892.75 1210.929688 911.640625 C 1252.679688 935.371094 1299.480469 892.53125 1302.769531 854.730469 C 1307.609375 819.359375 1298.378906 738.28125 1279.699219 714.109375 "/>
<path fill-rule="evenodd" fill="rgb(0.392151%, 19.604492%, 49.804688%)" fill-opacity="1" d="M 1190.941406 757.398438 C 1172.039062 752.570312 1161.058594 779.808594 1142.601562 774.101562 C 1108.101562 747.730469 1092.058594 715.871094 1137.988281 679.839844 C 1139.738281 687.96875 1145.679688 690.609375 1149.410156 691.261719 C 1155.78125 684.449219 1159.960938 673.910156 1174.019531 671.269531 C 1168.089844 682.691406 1168.75 688.628906 1176 694.339844 C 1196.210938 695.21875 1218.179688 669.070312 1247.410156 670.609375 C 1275.308594 675.21875 1288.269531 686.429688 1301.460938 703.128906 C 1332 748.171875 1312.878906 790.140625 1305.191406 811.890625 C 1301.019531 817.820312 1299.261719 820.019531 1277.949219 808.160156 C 1288.929688 789.921875 1291.351562 769.039062 1272.890625 762.671875 C 1246.53125 752.789062 1263.671875 784.210938 1248.5 793.429688 C 1243.449219 779.371094 1204.558594 759.160156 1190.941406 757.398438 "/>
<path fill-rule="evenodd" fill="rgb(51.756287%, 69.726562%, 99.609375%)" fill-opacity="1" d="M 1297.5 1785.460938 L 1334.628906 1827.871094 L 1396.160156 1898.179688 L 1149.851562 1898.179688 L 1211.371094 1827.871094 L 1248.5 1785.460938 L 1248.5 1514.109375 L 1297.5 1514.109375 L 1297.5 1785.460938 "/>
<path fill-rule="evenodd" fill="rgb(2.352905%, 26.268005%, 63.867188%)" fill-opacity="1" d="M 1128.101562 1473.898438 L 1418.128906 1473.898438 C 1433.949219 1473.898438 1447.128906 1487.078125 1447.128906 1502.898438 C 1447.128906 1518.941406 1433.949219 1531.910156 1418.128906 1531.910156 L 1128.101562 1531.910156 C 1112.058594 1531.910156 1099.101562 1518.941406 1099.101562 1502.898438 C 1099.101562 1487.078125 1112.058594 1473.898438 1128.101562 1473.898438 "/>
<path fill-rule="evenodd" fill="rgb(24.31488%, 72.068787%, 80.076599%)" fill-opacity="1" d="M 750.402344 1226.539062 L 1117.328125 1226.539062 C 1121.949219 1226.539062 1125.898438 1230.269531 1125.898438 1235.109375 L 1125.898438 1247.851562 C 1125.898438 1252.460938 1121.949219 1256.421875 1117.328125 1256.421875 L 750.402344 1256.421875 C 745.570312 1256.421875 741.832031 1252.460938 741.832031 1247.851562 L 741.832031 1235.109375 C 741.832031 1230.269531 745.570312 1226.539062 750.402344 1226.539062 "/>
<path fill-rule="evenodd" fill="rgb(38.426208%, 79.6875%, 92.576599%)" fill-opacity="1" d="M 536.835938 983.308594 C 593.304688 983.308594 649.769531 983.308594 706.238281 983.308594 C 762.707031 983.308594 818.953125 983.308594 875.421875 983.308594 C 884.871094 983.308594 894.757812 991 897.175781 1000.449219 C 907.5 1040.429688 917.828125 1080.199219 928.375 1120.191406 C 938.699219 1159.960938 949.027344 1199.730469 959.355469 1239.5 C 961.773438 1248.730469 956.058594 1256.421875 946.609375 1256.421875 C 890.363281 1256.421875 834.113281 1256.421875 777.867188 1256.421875 C 721.839844 1256.421875 665.589844 1256.421875 609.34375 1256.421875 C 599.894531 1256.421875 590.445312 1248.730469 587.8125 1239.5 C 577.265625 1199.730469 566.71875 1159.960938 556.171875 1120.191406 C 545.625 1080.199219 535.078125 1040.429688 524.3125 1000.449219 C 521.894531 991 527.386719 983.308594 536.835938 983.308594 "/>
<path fill-rule="evenodd" fill="rgb(100%, 100%, 100%)" fill-opacity="1" d="M 741.832031 1085.921875 C 754.359375 1085.921875 754.359375 1087.671875 760.070312 1090.53125 C 751.5 1096.460938 747.546875 1107.449219 750.84375 1120.191406 C 754.136719 1132.71875 763.804688 1143.699219 775.671875 1149.628906 C 771.277344 1152.710938 772.15625 1154.25 759.632812 1154.25 C 747.105469 1154.25 721.398438 1139.089844 716.566406 1120.191406 C 711.511719 1101.300781 729.089844 1085.921875 741.832031 1085.921875 "/>
<path fill-rule="evenodd" fill="rgb(100%, 68.943787%, 26.660156%)" fill-opacity="1" d="M 463.132812 1898.179688 L 487.058594 1898.179688 L 487.058594 1284.058594 L 463.132812 1284.058594 L 463.132812 1898.179688 "/>
<path fill-rule="evenodd" fill="rgb(100%, 68.943787%, 26.660156%)" fill-opacity="1" d="M 1368.351562 1898.179688 L 1392.441406 1898.179688 L 1392.441406 1284.058594 L 1368.351562 1284.058594 L 1368.351562 1898.179688 "/>
<path fill-rule="evenodd" fill="rgb(96.875%, 52.146912%, 35.301208%)" fill-opacity="1" d="M 388.507812 1309.328125 L 1466.898438 1309.328125 L 1466.898438 1256.160156 L 388.507812 1256.160156 L 388.507812 1309.328125 "/>
<path fill-rule="evenodd" fill="rgb(2.352905%, 26.268005%, 63.867188%)" fill-opacity="1" d="M 521.429688 931 C 599.921875 931 663.9375 833.570312 663.9375 714.089844 C 663.9375 594.660156 599.921875 497.230469 521.429688 497.230469 C 442.964844 497.230469 378.949219 594.660156 378.949219 714.089844 C 378.949219 833.570312 442.964844 931 521.429688 931 "/>
<path fill-rule="evenodd" fill="rgb(17.259216%, 49.414062%, 99.609375%)" fill-opacity="1" d="M 504.667969 931 C 578.839844 931 639.328125 833.570312 639.328125 714.089844 C 639.328125 594.660156 578.839844 497.230469 504.667969 497.230469 C 430.523438 497.230469 370.035156 594.660156 370.035156 714.089844 C 370.035156 833.570312 430.523438 931 504.667969 931 "/>
<path fill-rule="evenodd" fill="rgb(100%, 100%, 100%)" fill-opacity="1" d="M 504.667969 886.21875 C 563.539062 886.21875 611.527344 808.921875 611.527344 714.089844 C 611.527344 619.308594 563.539062 541.960938 504.667969 541.960938 C 445.824219 541.960938 397.839844 619.308594 397.839844 714.089844 C 397.839844 808.921875 445.824219 886.21875 504.667969 886.21875 "/>
<path fill-rule="evenodd" fill="rgb(17.259216%, 49.414062%, 99.609375%)" fill-opacity="1" d="M 504.667969 837.929688 C 547.035156 837.929688 581.546875 782.289062 581.546875 714.089844 C 581.546875 645.890625 547.035156 590.261719 504.667969 590.261719 C 462.328125 590.261719 427.816406 645.890625 427.816406 714.089844 C 427.816406 782.289062 462.328125 837.929688 504.667969 837.929688 "/>
<path fill-rule="evenodd" fill="rgb(100%, 100%, 100%)" fill-opacity="1" d="M 504.667969 789.730469 C 530.527344 789.730469 551.625 755.75 551.625 714.089844 C 551.625 672.429688 530.527344 638.449219 504.667969 638.449219 C 478.835938 638.449219 457.738281 672.429688 457.738281 714.089844 C 457.738281 755.75 478.835938 789.730469 504.667969 789.730469 "/>
<path fill-rule="evenodd" fill="rgb(91.796875%, 44.309998%, 54.492188%)" fill-opacity="1" d="M 504.667969 748.398438 C 516.40625 748.398438 525.96875 733 525.96875 714.089844 C 525.96875 695.179688 516.40625 679.78125 504.667969 679.78125 C 492.957031 679.78125 483.367188 695.179688 483.367188 714.089844 C 483.367188 733 492.957031 748.398438 504.667969 748.398438 "/>
<path fill-rule="evenodd" fill="rgb(2.352905%, 26.268005%, 63.867188%)" fill-opacity="1" d="M 195.640625 722.980469 L 195.832031 728.269531 L 196.195312 740.179688 C 168.878906 769.460938 140.246094 789.460938 113.21875 788.589844 C 84.292969 784.730469 80.058594 763.941406 70.929688 743.628906 C 83.84375 740.078125 97.816406 736.730469 113.066406 733.589844 L 112.953125 729.578125 L 112.863281 727 L 112.75 723 C 97.304688 720.839844 83.101562 718.398438 70.011719 715.671875 C 77.839844 694.820312 80.695312 673.789062 109.355469 668.101562 C 136.28125 665.5 166.082031 683.578125 195.273438 711.058594 L 195.640625 722.980469 "/>
<g clip-path="url(#clip-0)">
<g clip-path="url(#clip-1)">
<path fill-rule="nonzero" fill="url(#linear-pattern-0)" d="M 443.109375 655.230469 L 388.636719 719.660156 L 461.851562 781.558594 L 516.324219 717.128906 Z M 443.109375 655.230469 "/>
</g>
</g>
<path fill-rule="evenodd" fill="rgb(17.259216%, 49.414062%, 99.609375%)" fill-opacity="1" d="M 110.675781 724.28125 C 182.914062 711.75 288.046875 701.839844 405.703125 697.738281 C 430.664062 697.671875 431.980469 739.089844 407.054688 739.941406 C 289.375 743.378906 183.816406 740.269531 110.949219 732.441406 C 106.195312 732.269531 106.484375 724.410156 110.675781 724.28125 "/>
<g clip-path="url(#clip-2)">
<g clip-path="url(#clip-3)">
<path fill-rule="nonzero" fill="url(#linear-pattern-1)" d="M 373.902344 648.566406 L 310.898438 723.082031 L 390.464844 790.355469 L 453.46875 715.835938 Z M 373.902344 648.566406 "/>
</g>
</g>
<path fill-rule="evenodd" fill="rgb(59.959412%, 59.959412%, 99.609375%)" fill-opacity="1" d="M 1613.628906 1605.558594 C 1627.101562 1575.300781 1674.21875 1621.53125 1678.109375 1600.648438 C 1675.109375 1570.191406 1634.570312 1495.941406 1706.328125 1468.171875 C 1838.679688 1419.640625 1706.070312 1592.160156 1724.53125 1633.660156 C 1735.378906 1652.039062 1791.121094 1620.570312 1784.609375 1660.410156 C 1771.199219 1709.308594 1697.839844 1716.078125 1654.488281 1743.921875 C 1640.890625 1697.761719 1599.769531 1640.230469 1613.628906 1605.558594 "/>
<path fill-rule="nonzero" fill="rgb(80.076599%, 80.076599%, 99.609375%)" fill-opacity="1" d="M 1633.871094 1817.121094 C 1633.660156 1817.121094 1633.449219 1817.101562 1633.238281 1817.050781 C 1631.890625 1816.699219 1631.070312 1815.328125 1631.410156 1813.980469 C 1639.328125 1782.710938 1651.699219 1744.410156 1663.660156 1707.359375 C 1676.710938 1666.960938 1690.199219 1625.171875 1698.539062 1590.859375 C 1707.78125 1552.789062 1709.449219 1528.871094 1703.640625 1517.730469 C 1703 1516.488281 1703.480469 1514.96875 1704.710938 1514.320312 C 1705.949219 1513.679688 1707.480469 1514.148438 1708.121094 1515.390625 C 1722.238281 1542.441406 1696.121094 1623.300781 1668.46875 1708.921875 C 1656.53125 1745.878906 1644.191406 1784.109375 1636.320312 1815.21875 C 1636.03125 1816.359375 1635 1817.121094 1633.871094 1817.121094 "/>
<path fill-rule="nonzero" fill="rgb(80.076599%, 80.076599%, 99.609375%)" fill-opacity="1" d="M 1668.53125 1703.03125 C 1668.140625 1703.03125 1667.738281 1702.941406 1667.359375 1702.738281 C 1666.128906 1702.101562 1665.648438 1700.570312 1666.289062 1699.328125 C 1678.378906 1676.210938 1701.25 1672.628906 1732.238281 1670.078125 C 1733.628906 1669.960938 1734.851562 1671 1734.960938 1672.398438 C 1735.078125 1673.789062 1734.039062 1675.011719 1732.648438 1675.121094 C 1698.671875 1677.910156 1680.75 1682.589844 1670.769531 1701.671875 C 1670.320312 1702.539062 1669.441406 1703.03125 1668.53125 1703.03125 "/>
<path fill-rule="nonzero" fill="rgb(80.076599%, 80.076599%, 99.609375%)" fill-opacity="1" d="M 1676.898438 1677.050781 C 1676.75 1677.050781 1676.589844 1677.03125 1676.441406 1677 C 1675.058594 1676.75 1674.160156 1675.429688 1674.410156 1674.058594 C 1678.210938 1653.539062 1655.941406 1623.710938 1644.199219 1618.878906 C 1642.910156 1618.351562 1642.300781 1616.871094 1642.828125 1615.578125 C 1643.359375 1614.289062 1644.839844 1613.679688 1646.128906 1614.210938 C 1659.75 1619.808594 1683.730469 1651.480469 1679.378906 1674.980469 C 1679.160156 1676.191406 1678.089844 1677.050781 1676.898438 1677.050781 "/>
<path fill-rule="evenodd" fill="rgb(80.076599%, 80.076599%, 99.609375%)" fill-opacity="1" d="M 1500.679688 1623.628906 C 1497.621094 1587.238281 1567.78125 1606.710938 1560.378906 1584.429688 C 1541.160156 1556.589844 1462.308594 1506.601562 1516.828125 1441.421875 C 1618.671875 1323.808594 1582.789062 1561.320312 1622.820312 1591.449219 C 1643.121094 1603.460938 1680.089844 1543.25 1695.089844 1585.261719 C 1708.308594 1639.589844 1641.140625 1685.371094 1614.140625 1735.359375 C 1576.339844 1698.140625 1505.921875 1664.488281 1500.679688 1623.628906 "/>
<path fill-rule="nonzero" fill="rgb(59.959412%, 59.959412%, 99.609375%)" fill-opacity="1" d="M 1632.011719 1817.25 C 1630.890625 1817.25 1629.871094 1816.5 1629.570312 1815.371094 C 1620.480469 1780.921875 1611.941406 1737.289062 1603.671875 1695.101562 C 1594.671875 1649.109375 1585.359375 1601.558594 1575.058594 1563.980469 C 1563.609375 1522.230469 1552.398438 1498.199219 1540.789062 1490.511719 C 1539.621094 1489.738281 1539.300781 1488.179688 1540.070312 1487.011719 C 1540.839844 1485.851562 1542.410156 1485.53125 1543.578125 1486.300781 C 1556.429688 1494.808594 1567.988281 1519.070312 1579.929688 1562.648438 C 1590.28125 1600.410156 1599.609375 1648.050781 1608.640625 1694.121094 C 1616.878906 1736.238281 1625.410156 1779.78125 1634.460938 1814.078125 C 1634.808594 1815.429688 1634.011719 1816.808594 1632.660156 1817.171875 C 1632.441406 1817.230469 1632.230469 1817.25 1632.011719 1817.25 "/>
<path fill-rule="nonzero" fill="rgb(59.959412%, 59.959412%, 99.609375%)" fill-opacity="1" d="M 1604.488281 1688.539062 C 1603.128906 1688.539062 1602 1687.449219 1601.96875 1686.070312 C 1601.269531 1657.5 1621.390625 1641.800781 1649.890625 1622.738281 C 1651.050781 1621.96875 1652.621094 1622.28125 1653.398438 1623.441406 C 1654.171875 1624.601562 1653.859375 1626.171875 1652.699219 1626.949219 C 1621.289062 1647.949219 1606.441406 1662.140625 1607.019531 1685.949219 C 1607.058594 1687.339844 1605.949219 1688.5 1604.558594 1688.539062 C 1604.539062 1688.539062 1604.519531 1688.539062 1604.488281 1688.539062 "/>
<path fill-rule="nonzero" fill="rgb(59.959412%, 59.959412%, 99.609375%)" fill-opacity="1" d="M 1598.621094 1658.980469 C 1597.558594 1658.980469 1596.570312 1658.308594 1596.21875 1657.238281 C 1588.929688 1635.238281 1551.289062 1618.289062 1537.308594 1619.949219 C 1535.921875 1620.109375 1534.660156 1619.121094 1534.5 1617.738281 C 1534.339844 1616.351562 1535.328125 1615.089844 1536.710938 1614.929688 C 1544.800781 1613.96875 1558.800781 1618.070312 1571.53125 1625.128906 C 1580.398438 1630.050781 1596.011719 1640.550781 1601.019531 1655.648438 C 1601.460938 1656.980469 1600.738281 1658.410156 1599.421875 1658.851562 C 1599.148438 1658.941406 1598.890625 1658.980469 1598.621094 1658.980469 "/>
<path fill-rule="evenodd" fill="rgb(74.414062%, 58.789062%, 97.264099%)" fill-opacity="1" d="M 1661.640625 1902.320312 L 1684.429688 1913.558594 L 1585.71875 1913.558594 L 1608.578125 1902.320312 L 1661.640625 1902.320312 "/>
<path fill-rule="evenodd" fill="rgb(87.5%, 81.25%, 99.21875%)" fill-opacity="1" d="M 1739.589844 1809.109375 C 1735.191406 1862.929688 1690.109375 1905.320312 1635.078125 1905.320312 C 1580.109375 1905.320312 1535.03125 1862.929688 1530.628906 1809.109375 L 1739.589844 1809.109375 "/>
<path fill-rule="evenodd" fill="rgb(100%, 100%, 100%)" fill-opacity="1" d="M 1611.449219 1892.421875 C 1576.019531 1887.25 1547.289062 1856.351562 1542.25 1816.699219 L 1550.289062 1816.261719 C 1555.328125 1853.160156 1579.851562 1882.660156 1611.449219 1892.300781 L 1611.449219 1892.421875 "/>
<path fill-rule="evenodd" fill="rgb(5.488586%, 72.851562%, 62.693787%)" fill-opacity="1" d="M 186.175781 1482.210938 C 191.996094 1480.730469 198.71875 1485.480469 202.535156 1489.699219 C 201.25 1494.019531 195.015625 1491.660156 190.964844 1490.53125 C 186.46875 1489.539062 182.707031 1484.609375 186.175781 1482.210938 Z M 217.683594 1600.488281 C 212.894531 1602.929688 220.246094 1605.800781 223.054688 1605.019531 C 226.714844 1604.78125 231.953125 1603.480469 233.03125 1599.539062 C 230.160156 1595.898438 223.785156 1597.601562 217.683594 1600.488281 Z M 267.1875 1553.601562 C 260.460938 1540.988281 285.753906 1526.160156 292.644531 1529.910156 C 297.667969 1535.148438 274.226562 1561.050781 267.1875 1553.601562 Z M 244.195312 1519.578125 C 241.898438 1529.070312 254.507812 1522.339844 256.8125 1517.511719 C 260.785156 1512.171875 265.167969 1503.460938 261.042969 1497.25 C 252.597656 1496.96875 247.441406 1507.769531 244.195312 1519.578125 Z M 169.363281 1534.050781 C 172.164062 1532.511719 175.839844 1533.789062 177.535156 1536.921875 C 179.230469 1540.039062 178.324219 1543.859375 175.492188 1545.378906 C 172.664062 1546.890625 168.988281 1545.601562 167.292969 1542.480469 C 165.597656 1539.359375 166.53125 1535.570312 169.363281 1534.050781 Z M 272.78125 1642.839844 C 298.765625 1630.261719 337.109375 1583.890625 343.820312 1540.488281 C 345.96875 1527.191406 353.1875 1481.320312 326.453125 1477.808594 C 312.71875 1486.339844 308.671875 1522.191406 285.304688 1503.328125 C 276.761719 1490.789062 318.332031 1484.648438 318.566406 1469.941406 C 316.175781 1450.019531 293.359375 1419.671875 270.238281 1420.648438 C 262.019531 1426.578125 260.113281 1483.890625 246.917969 1483.121094 C 234.691406 1479.289062 254.746094 1447.738281 258.679688 1430.089844 C 260.730469 1411.871094 231.878906 1403.609375 214.851562 1396.800781 C 222.449219 1419.039062 224.335938 1438.578125 216.140625 1439.820312 C 196.183594 1440.421875 221.914062 1407.46875 214.851562 1396.800781 C 190.148438 1386.921875 187.644531 1374.511719 172.726562 1378.210938 C 160.734375 1392.398438 155.542969 1399.269531 152.785156 1416.738281 C 147.789062 1454.789062 207.125 1466.769531 199.296875 1477.210938 C 188.847656 1482.570312 161.296875 1447.148438 154.726562 1449.988281 C 140.21875 1453.570312 134.808594 1483.890625 144 1493.21875 C 157.59375 1507.058594 208.367188 1515.089844 206.578125 1525.539062 C 204.429688 1538.71875 149.976562 1503.988281 132.277344 1518.671875 C 118.871094 1532.121094 120.414062 1559.449219 124.546875 1577.480469 C 125.3125 1602.941406 208.203125 1566.570312 211.847656 1574.980469 C 208.171875 1598.75 120.238281 1588.011719 136.433594 1622.609375 C 146.75 1640.429688 166.097656 1647.660156 185.402344 1653.628906 C 215.171875 1662.738281 254.507812 1652.308594 272.78125 1642.839844 "/>
<path fill-rule="nonzero" fill="rgb(8.616638%, 53.318787%, 54.881287%)" fill-opacity="1" d="M 288.203125 1734.199219 C 287.839844 1733.839844 287.585938 1733.371094 287.507812 1732.820312 C 271.011719 1618.128906 236.566406 1513.828125 182.199219 1413.96875 C 181.5625 1412.800781 181.996094 1411.328125 183.167969 1410.699219 C 184.339844 1410.058594 185.804688 1410.488281 186.441406 1411.660156 C 215.085938 1464.28125 238.71875 1519.558594 256.675781 1575.96875 C 272.589844 1625.960938 284.570312 1678.5 292.285156 1732.128906 C 292.476562 1733.449219 291.558594 1734.679688 290.238281 1734.871094 C 289.464844 1734.980469 288.722656 1734.710938 288.203125 1734.199219 "/>
<path fill-rule="nonzero" fill="rgb(8.616638%, 53.318787%, 54.881287%)" fill-opacity="1" d="M 219.679688 1490.410156 C 218.78125 1489.53125 218.710938 1488.089844 219.546875 1487.121094 C 234.40625 1469.878906 239.199219 1449.761719 233.792969 1427.320312 C 233.480469 1426.03125 234.28125 1424.71875 235.574219 1424.410156 C 236.871094 1424.101562 238.175781 1424.898438 238.488281 1426.191406 C 241.246094 1437.648438 241.492188 1448.71875 239.222656 1459.109375 C 236.777344 1470.289062 231.386719 1480.769531 223.203125 1490.269531 C 222.332031 1491.28125 220.808594 1491.390625 219.796875 1490.519531 C 219.757812 1490.488281 219.71875 1490.449219 219.679688 1490.410156 "/>
<path fill-rule="nonzero" fill="rgb(8.616638%, 53.318787%, 54.881287%)" fill-opacity="1" d="M 256.972656 1592.230469 C 256.71875 1591.980469 256.515625 1591.671875 256.390625 1591.308594 C 255.945312 1590.058594 256.605469 1588.679688 257.863281 1588.238281 C 295.761719 1574.878906 319.152344 1545.628906 325.511719 1503.648438 C 325.714844 1502.328125 326.941406 1501.421875 328.261719 1501.621094 C 329.578125 1501.820312 330.484375 1503.050781 330.285156 1504.371094 C 323.640625 1548.230469 299.152344 1578.808594 259.46875 1592.789062 C 258.570312 1593.109375 257.609375 1592.859375 256.972656 1592.230469 "/>
<path fill-rule="nonzero" fill="rgb(8.616638%, 53.318787%, 54.881287%)" fill-opacity="1" d="M 145.492188 1551.460938 C 144.796875 1550.78125 144.558594 1549.699219 144.980469 1548.761719 C 145.519531 1547.539062 146.945312 1546.988281 148.164062 1547.53125 C 179.117188 1561.28125 206.34375 1559.570312 242.136719 1541.640625 C 243.328125 1541.039062 244.78125 1541.53125 245.378906 1542.71875 C 245.976562 1543.910156 245.492188 1545.359375 244.300781 1545.960938 C 226.359375 1554.949219 211.226562 1559.761719 196.675781 1561.109375 C 180.066406 1562.648438 163.554688 1559.648438 146.203125 1551.941406 C 145.933594 1551.820312 145.691406 1551.660156 145.492188 1551.460938 "/>
<path fill-rule="nonzero" fill="rgb(8.616638%, 53.318787%, 54.881287%)" fill-opacity="1" d="M 158.726562 1621.699219 C 158.035156 1621.019531 157.796875 1619.960938 158.207031 1619.019531 C 158.738281 1617.789062 160.160156 1617.230469 161.382812 1617.769531 C 214.75 1640.980469 244.996094 1629.351562 265.386719 1616.628906 C 266.515625 1615.921875 268.003906 1616.269531 268.710938 1617.398438 C 269.414062 1618.53125 269.070312 1620.019531 267.941406 1620.71875 C 246.550781 1634.070312 214.886719 1646.300781 159.457031 1622.191406 C 159.175781 1622.070312 158.929688 1621.898438 158.726562 1621.699219 "/>
<path fill-rule="evenodd" fill="rgb(14.109802%, 82.03125%, 70.117188%)" fill-opacity="1" d="M 378.773438 1477.589844 C 384.132812 1480.359375 385.984375 1488.351562 386.03125 1494.039062 C 382.238281 1496.410156 379.085938 1490.519531 376.828125 1487.019531 C 374.160156 1483.289062 374.578125 1477.128906 378.773438 1477.589844 Z M 323.914062 1587.019531 C 318.714844 1585.691406 322.289062 1592.691406 324.910156 1593.988281 C 327.828125 1596.21875 332.597656 1598.699219 336.039062 1596.511719 C 336.292969 1591.871094 330.40625 1588.929688 323.914062 1587.019531 Z M 392.046875 1584.738281 C 395.390625 1570.871094 424.164062 1576.5 426.832031 1583.898438 C 427.125 1591.160156 392.421875 1594.988281 392.046875 1584.738281 Z M 397.402344 1544.070312 C 389.386719 1549.609375 403.304688 1552.960938 408.214844 1550.871094 C 414.738281 1549.5 423.796875 1545.898438 424.820312 1538.539062 C 418.707031 1532.699219 407.691406 1537.328125 397.402344 1544.070312 Z M 331.808594 1505.238281 C 334.921875 1505.96875 336.824219 1509.359375 336.03125 1512.820312 C 335.210938 1516.320312 332.003906 1518.511719 328.890625 1517.78125 C 325.75 1517.070312 323.875 1513.648438 324.667969 1510.191406 C 325.488281 1506.75 328.664062 1504.53125 331.808594 1505.238281 Z M 337.101562 1655.238281 C 364.867188 1663.070312 424.324219 1653.828125 458.125 1625.730469 C 468.519531 1617.238281 504.363281 1587.660156 486.695312 1567.320312 C 470.757812 1564.601562 443.960938 1588.769531 438.96875 1559.148438 C 440.871094 1544.089844 476.054688 1567.078125 486.019531 1556.179688 C 497.40625 1539.710938 500.46875 1501.839844 482.527344 1487.269531 C 472.4375 1486.238281 433 1527.859375 423.601562 1518.558594 C 417.007812 1507.589844 452.945312 1497.300781 467.605469 1486.660156 C 481.191406 1474.390625 465.097656 1449.070312 456.875 1432.671875 C 447.820312 1454.339844 436.253906 1470.238281 429.300781 1465.71875 C 413.953125 1452.949219 455.101562 1445.351562 456.875 1432.671875 C 444.957031 1408.910156 451.289062 1397.980469 437.6875 1390.820312 C 419.242188 1393.488281 410.84375 1395.171875 397.1875 1406.449219 C 368.199219 1431.660156 404.675781 1479.929688 391.917969 1482.558594 C 380.519531 1479.660156 383.378906 1434.851562 376.5625 1432.621094 C 363.375 1425.691406 339.199219 1444.761719 339.894531 1457.890625 C 340.902344 1477.261719 373.585938 1516.910156 365.285156 1523.578125 C 354.976562 1531.980469 337.234375 1469.871094 314.21875 1469.148438 C 295.265625 1470.328125 278.320312 1491.808594 269.453125 1508.03125 C 253.140625 1527.628906 339.339844 1555.328125 336.449219 1564.058594 C 317.960938 1579.421875 259.265625 1513.070312 248.425781 1549.738281 C 244.339844 1569.910156 254.015625 1588.148438 264.503906 1605.378906 C 280.753906 1631.960938 317.101562 1650.210938 337.101562 1655.238281 "/>
<path fill-rule="nonzero" fill="rgb(8.616638%, 53.318787%, 54.881287%)" fill-opacity="1" d="M 288.738281 1735.421875 C 287.933594 1734.628906 287.773438 1733.359375 288.417969 1732.378906 C 352.121094 1635.570312 395.511719 1534.660156 421.070312 1423.871094 C 421.371094 1422.570312 422.664062 1421.761719 423.964844 1422.058594 C 425.265625 1422.359375 426.074219 1423.648438 425.773438 1424.949219 C 412.308594 1483.328125 393.324219 1540.378906 369.355469 1594.519531 C 348.113281 1642.488281 322.238281 1689.761719 292.449219 1735.03125 C 291.71875 1736.148438 290.21875 1736.449219 289.105469 1735.71875 C 288.972656 1735.628906 288.847656 1735.53125 288.738281 1735.421875 "/>
<path fill-rule="nonzero" fill="rgb(8.616638%, 53.318787%, 54.881287%)" fill-opacity="1" d="M 399.089844 1507.539062 C 398.722656 1507.179688 398.464844 1506.691406 398.390625 1506.140625 C 398.210938 1504.820312 399.136719 1503.609375 400.457031 1503.429688 C 423.019531 1500.359375 439.964844 1488.46875 450.820312 1468.089844 C 451.449219 1466.910156 452.910156 1466.46875 454.085938 1467.089844 C 455.261719 1467.71875 455.710938 1469.179688 455.082031 1470.359375 C 443.453125 1492.191406 425.292969 1504.929688 401.105469 1508.210938 C 400.335938 1508.308594 399.601562 1508.039062 399.089844 1507.539062 "/>
<path fill-rule="nonzero" fill="rgb(8.616638%, 53.318787%, 54.881287%)" fill-opacity="1" d="M 359.492188 1608.429688 C 358.816406 1607.761719 358.566406 1606.730469 358.949219 1605.800781 C 359.449219 1604.558594 360.859375 1603.96875 362.09375 1604.46875 C 399.332031 1619.609375 436.246094 1613.238281 468.847656 1586.058594 C 469.871094 1585.199219 471.390625 1585.339844 472.246094 1586.359375 C 473.097656 1587.390625 472.960938 1588.910156 471.9375 1589.761719 C 437.882812 1618.160156 399.269531 1624.800781 360.273438 1608.941406 C 359.972656 1608.820312 359.710938 1608.640625 359.492188 1608.429688 "/>
<path fill-rule="nonzero" fill="rgb(8.616638%, 53.318787%, 54.881287%)" fill-opacity="1" d="M 324.292969 1535.101562 C 315.558594 1526.511719 308.414062 1516.011719 302.621094 1503.289062 C 302.066406 1502.078125 302.601562 1500.648438 303.816406 1500.089844 C 305.027344 1499.539062 306.460938 1500.078125 307.011719 1501.289062 C 321.054688 1532.109375 342.5625 1548.890625 381.25 1559.199219 C 382.539062 1559.539062 383.304688 1560.859375 382.960938 1562.148438 C 382.617188 1563.441406 381.296875 1564.199219 380.007812 1563.859375 C 360.617188 1558.691406 346.101562 1552.261719 334.320312 1543.628906 C 330.765625 1541.019531 327.425781 1538.191406 324.292969 1535.101562 "/>
<path fill-rule="nonzero" fill="rgb(8.616638%, 53.318787%, 54.881287%)" fill-opacity="1" d="M 296.078125 1609.570312 C 285.617188 1599.28125 275.359375 1584.910156 265.960938 1564.691406 C 265.398438 1563.480469 265.925781 1562.050781 267.132812 1561.488281 C 268.34375 1560.921875 269.777344 1561.449219 270.339844 1562.660156 C 294.851562 1615.410156 325.214844 1626.738281 348.929688 1630.71875 C 350.246094 1630.941406 351.132812 1632.191406 350.910156 1633.5 C 350.691406 1634.820312 349.445312 1635.699219 348.132812 1635.480469 C 332.433594 1632.851562 313.964844 1627.160156 296.078125 1609.570312 "/>
<path fill-rule="nonzero" fill="rgb(51.756287%, 69.726562%, 99.609375%)" fill-opacity="1" d="M 426.78125 1707.660156 L 378.976562 1913.53125 L 237.917969 1913.53125 L 190.113281 1707.660156 L 426.78125 1707.660156 "/>
<path fill-rule="nonzero" fill="rgb(17.259216%, 49.414062%, 99.609375%)" fill-opacity="1" d="M 418.121094 1741.699219 L 198.769531 1741.699219 C 186.4375 1741.699219 176.4375 1731.699219 176.4375 1719.371094 L 176.4375 1717.929688 C 176.4375 1705.601562 186.4375 1695.601562 198.769531 1695.601562 L 418.121094 1695.601562 C 430.457031 1695.601562 440.457031 1705.601562 440.457031 1717.929688 L 440.457031 1719.371094 C 440.457031 1731.699219 430.457031 1741.699219 418.121094 1741.699219 "/>
<path fill-rule="nonzero" fill="rgb(51.756287%, 69.726562%, 99.609375%)" fill-opacity="1" d="M 418.121094 1738.070312 L 198.769531 1738.070312 C 186.4375 1738.070312 176.4375 1728.070312 176.4375 1715.730469 L 176.4375 1714.300781 C 176.4375 1701.960938 186.4375 1691.960938 198.769531 1691.960938 L 418.121094 1691.960938 C 430.457031 1691.960938 440.457031 1701.960938 440.457031 1714.300781 L 440.457031 1715.730469 C 440.457031 1728.070312 430.457031 1738.070312 418.121094 1738.070312 "/>
</svg>
